<?xml version="1.0" encoding="utf-8"?>
<!-- Generator: Adobe Illustrator 19.1.0, SVG Export Plug-In . SVG Version: 6.00 Build 0)  -->
<!DOCTYPE svg PUBLIC "-//W3C//DTD SVG 1.1//EN" "http://www.w3.org/Graphics/SVG/1.1/DTD/svg11.dtd">
<svg version="1.1" id="Layer_1" xmlns="http://www.w3.org/2000/svg" xmlns:xlink="http://www.w3.org/1999/xlink" x="0px" y="0px"
	 width="170.7px" height="18.8px" viewBox="0 0 170.7 18.8" enable-background="new 0 0 170.7 18.8" xml:space="preserve">
<g>
	<g>
		<g>
			<path fill="#FFFFFF" d="M24.8,3v13.4h-3V3h-3V0.3h8.9V3H24.8z"/>
			<path fill="#FFFFFF" d="M35,16.3V9.8h-3.3v6.6h-3v-16h3v6.8H35V0.3h3v16H35z"/>
			<path fill="#FFFFFF" d="M39.9,16.3v-16h7.6v2.6h-4.7v4h3.2v2.4h-3.2v4.4h4.7v2.7H39.9z"/>
			<path fill="#FFFFFF" d="M57.9,3v13.4h-3V3h-3V0.3h8.9V3H57.9z"/>
			<path fill="#FFFFFF" d="M62.1,16.3v-16h7.6v2.6h-4.7v4h3.2v2.4h-3.2v4.4h4.7v2.7H62.1z"/>
			<path fill="#FFFFFF" d="M77.5,16.3l-1.9-5.5l-2,5.5h-2.9L74,8.3l-3.1-7.9H74l1.8,5.5l1.9-5.5h2.9L77.4,8l3.2,8.3H77.5z"/>
			<path fill="#FFFFFF" d="M88,16.3l-0.5-3.1h-2.8L84,16.3h-2.8l3.2-16h3.3l3.2,16H88z M86.1,4.7L85,10.8h2L86.1,4.7z"/>
			<path fill="#FFFFFF" d="M95.8,16.7c-2.7,0-4.4-1.6-4.4-4.1v-1.1h2.7v0.9c0,1.2,0.6,1.8,1.6,1.8c1.1,0,1.6-0.6,1.6-1.6
				c0-1.3-0.8-2.1-2.4-3.3c-1.6-1.2-3.4-2.8-3.4-5C91.5,2,93,0,95.9,0c2.5,0,4.2,1.7,4.2,4.1v1h-2.7v-1c0-1-0.5-1.7-1.5-1.7
				c-0.9,0-1.4,0.6-1.4,1.4c0,1.3,0.8,2,2.6,3.3c1.9,1.4,3.2,2.9,3.2,5C100.2,14.9,98.5,16.7,95.8,16.7z"/>
			<path fill="#FFFFFF" d="M110.1,3v13.4h-3V3h-3V0.3h8.9V3H110.1z"/>
			<path fill="#FFFFFF" d="M121.7,16.4c-1.2,0-1.6-1-1.6-2.4v-3c0-0.7-0.4-1.4-1.2-1.4h-1.6v6.6h-3v-16h4.9c2.2,0,3.7,1.3,3.7,3.5
				v2.3c0,1.2-0.6,2.1-1.8,2.5c1.3,0.3,1.9,1.4,1.9,2.4v2.9c0,0.7,0.2,1.2,0.6,1.6v0.9H121.7z M120,3.9c0-0.7-0.3-1.2-1.1-1.2h-1.6
				v4.7h1.5c0.8,0,1.2-0.4,1.2-1.3V3.9z"/>
			<path fill="#FFFFFF" d="M125.3,16.3v-16h3v16H125.3z"/>
			<path fill="#FFFFFF" d="M135.7,16.3h-5v-16h5c2.2,0,3.5,1.2,3.5,3.4v1.7c0,1.4-0.5,2.4-1.9,2.7c1.4,0.4,2,1.4,2,2.7V13
				C139.3,15.2,137.9,16.3,135.7,16.3z M136.4,3.9c0-0.7-0.3-1.2-1.1-1.2h-1.6v4.4h1.5c0.8,0,1.2-0.4,1.2-1.3V3.9z M136.4,10.7
				c0-0.8-0.4-1.3-1.2-1.3h-1.5v4.5h1.7c0.7,0,1-0.4,1-1.2V10.7z"/>
			<path fill="#FFFFFF" d="M145.6,16.7c-2.6,0-4.5-1.7-4.5-4.1V0.3h3v12.3c0,0.9,0.5,1.5,1.5,1.5c1,0,1.5-0.5,1.5-1.5V0.3h2.9v12.3
				C150,15,148.2,16.7,145.6,16.7z"/>
			<path fill="#FFFFFF" d="M158.8,16.3l-3.1-6.8L154.5,7v9.4h-2.7v-16h2.6l3,6.9l1.1,2.5V0.3h2.7v16H158.8z"/>
			<path fill="#FFFFFF" d="M163.1,16.3v-16h7.6v2.6h-4.7v4h3.2v2.4h-3.2v4.4h4.7v2.7H163.1z"/>
		</g>
		<path fill="#FDBA12" d="M0,0.2v18.6l3.7-2.3h12.5V0.2H0z M11.7,13.2l-3.6-2.3l-3.6,2.3l1.1-4.1L2.3,6.4l4.3-0.2l1.5-4l1.5,4
			l4.3,0.2l-3.3,2.7L11.7,13.2z"/>
	</g>
</g>
</svg>
